<svg version="1.0" xmlns="http://www.w3.org/2000/svg"
 width="225.000000pt" height="225.000000pt" viewBox="0 0 225.000000 225.000000"
 preserveAspectRatio="xMidYMid meet">

<g transform="translate(0.000000,225.000000) scale(0.100000,-0.100000)"
fill="#000000" stroke="none">
<path d="M0 1125 l0 -1125 1125 0 1125 0 0 1125 0 1125 -1125 0 -1125 0 0
-1125z m1230 1000 c212 -17 472 -154 618 -324 110 -127 188 -277 229 -437 16
-62 18 -126 18 -588 l0 -519 -77 -32 -77 -33 -3 552 -3 551 -31 92 c-97 284
-317 491 -599 564 -111 28 -289 28 -400 0 -379 -99 -635 -428 -635 -816 0
-389 254 -715 635 -816 112 -29 288 -29 400 0 158 42 304 128 408 241 l57 61
0 -116 c0 -132 7 -120 -104 -197 -184 -128 -436 -192 -659 -168 -425 47 -753
329 -869 748 -31 112 -31 382 0 494 83 301 274 531 546 659 136 64 327 103
446 93 19 -2 64 -6 100 -9z m-76 -317 c35 -36 94 -166 98 -217 3 -30 0 -33
-67 -61 -38 -17 -74 -30 -80 -30 -12 0 -142 54 -151 63 -9 9 24 114 56 178 29
57 70 99 97 99 8 0 29 -15 47 -32z m-259 -46 c-13 -27 -31 -74 -40 -105 -9
-32 -19 -57 -23 -57 -4 1 -34 7 -67 15 -33 8 -82 15 -110 15 l-50 1 35 30 c52
46 128 94 195 123 83 35 87 34 60 -22z m518 2 c69 -34 177 -112 177 -126 0 -5
-19 -8 -42 -8 -24 0 -70 -7 -103 -15 -33 -8 -63 -14 -67 -15 -3 0 -16 30 -28
67 -12 37 -30 84 -42 106 l-20 40 29 -7 c15 -4 59 -23 96 -42z m-650 -264 l48
-13 -6 -76 c-4 -42 -11 -82 -15 -89 -4 -8 -36 -36 -71 -64 l-64 -50 -53 59
c-63 70 -117 172 -108 206 3 13 16 29 28 35 28 15 173 9 241 -8z m916 9 c20
-7 33 -20 37 -35 9 -35 -44 -136 -108 -207 l-53 -58 -71 55 -71 55 -7 82 c-4
44 -6 83 -3 85 2 3 33 11 68 19 79 17 166 19 208 4z m-716 -77 c8 -4 -22 -31
-35 -32 -5 0 -8 11 -8 25 0 24 10 25 43 7z m327 -7 c0 -28 -7 -30 -33 -11 -18
14 -18 15 0 25 27 16 33 13 33 -14z m-774 -230 l51 -60 -39 -45 c-22 -25 -53
-65 -71 -90 l-31 -45 -8 35 c-11 49 -13 204 -3 269 l7 55 22 -29 c11 -16 44
-57 72 -90z m1280 49 c8 -66 1 -261 -10 -272 -5 -4 -16 4 -25 18 -9 13 -39 51
-68 84 l-51 61 47 55 c27 30 56 67 66 83 9 15 21 27 25 27 5 0 12 -25 16 -56z
m-605 13 c124 -82 64 -269 -86 -269 -150 0 -210 187 -86 269 24 17 49 23 86
23 37 0 62 -6 86 -23z m-401 -122 c0 -35 0 -35 -25 -19 l-25 16 23 19 c28 24
27 25 27 -16z m678 -1 c1 -1 -9 -9 -23 -18 l-25 -16 0 36 0 37 23 -19 c12 -10
23 -19 25 -20z m-697 -166 c19 -17 29 -36 29 -55 0 -15 3 -51 6 -79 l7 -52
-71 -16 c-83 -19 -181 -21 -217 -4 -14 6 -28 22 -31 34 -9 34 35 120 100 197
l57 67 46 -32 c25 -18 59 -45 74 -60z m853 14 c63 -78 100 -153 92 -186 -12
-48 -113 -60 -249 -30 l-74 16 8 42 c5 22 8 60 9 83 0 40 3 44 71 97 40 31 75
53 79 51 4 -3 33 -35 64 -73z m-671 -127 c18 -13 18 -14 -2 -24 -28 -15 -31
-14 -31 14 0 28 7 30 33 10z m337 -10 c0 -28 -3 -29 -31 -14 -20 10 -20 11 -2
24 26 20 33 18 33 -10z m-104 -106 c38 -17 71 -33 72 -34 2 -2 -4 -30 -13 -61
-34 -118 -97 -214 -140 -214 -42 0 -103 91 -141 212 -9 32 -16 60 -13 62 10
10 136 64 150 65 9 1 47 -13 85 -30z m-331 -126 c9 -31 27 -78 40 -106 l24
-49 -27 7 c-88 22 -287 149 -260 166 7 5 29 9 48 10 19 0 58 7 85 14 28 7 55
13 62 14 6 0 19 -24 28 -56z m630 36 c117 -19 117 -19 46 -72 -64 -48 -163
-100 -214 -113 l-29 -7 20 40 c12 22 30 70 42 107 20 60 25 67 44 62 11 -4 53
-11 91 -17z"/>
</g>
</svg>
